<?xml version="1.0" encoding="UTF-8"?>
<svg width="318px" height="96px" viewBox="0 0 318 96" version="1.1" xmlns="http://www.w3.org/2000/svg" xmlns:xlink="http://www.w3.org/1999/xlink">
    <title>logo-黑-文字</title>
    <g id="页面-1" stroke="none" stroke-width="1" fill="none" fill-rule="evenodd">
        <g id="logo-黑-文字" transform="translate(-4.358644, -5.129084)" fill="#181818">
            <g id="logo-白--文字备份" transform="translate(0.000000, 0.000000)">
                <path d="M27.7168311,3.65210648 C34.7325507,3.42653728 40.6027751,8.93104177 40.8283443,15.9467614 C40.837346,16.2267356 40.8370894,16.506931 40.8275748,16.7868883 L39.6258316,52.1470947 C39.366318,59.7830489 33.2290533,65.9090817 25.5926365,66.1546076 C18.5769169,66.3801768 12.7066925,60.8756723 12.4811233,53.8599527 C12.4721216,53.5799784 12.4723782,53.2997831 12.4818928,53.0198258 L13.683636,17.6596193 C13.9431497,10.0236652 20.0804144,3.89763232 27.7168311,3.65210648 Z" id="矩形" transform="translate(26.654734, 34.903357) rotate(25.000000) translate(-26.654734, -34.903357) "></path>
                <path d="M98.9333084,26.0634455 C105.949028,25.8378763 111.819252,31.3423807 112.044822,38.3581003 C112.053823,38.6380746 112.053567,38.9182699 112.044052,39.1982272 L110.842309,74.5584337 C110.582795,82.1943878 104.445531,88.3204207 96.8091139,88.5659465 C89.7933943,88.7915157 83.9231699,83.2870112 83.6976007,76.2712917 C83.6885989,75.9913174 83.6888556,75.7111221 83.6983701,75.4311648 L84.9001134,40.0709583 C85.159627,32.4350042 91.2968917,26.3089713 98.9333084,26.0634455 Z" id="矩形" transform="translate(97.871211, 57.314696) rotate(25.000000) translate(-97.871211, -57.314696) "></path>
                <path d="M51.6289329,40.8453924 C58.6446525,40.6198232 64.514877,46.1243277 64.7404462,53.1400473 C64.7494479,53.4200216 64.7491913,53.7002169 64.7396767,53.9801742 L63.5379335,89.3403807 C63.2784198,96.9763348 57.1411551,103.102368 49.5047384,103.347894 C42.4890188,103.573463 36.6187944,98.0689582 36.3932252,91.0532386 C36.3842235,90.7732644 36.3844801,90.493069 36.3939947,90.2131117 L37.5957379,54.8529053 C37.8552515,47.2169511 43.9925162,41.0909183 51.6289329,40.8453924 Z" id="矩形" transform="translate(50.566836, 72.096643) rotate(25.000000) translate(-50.566836, -72.096643) "></path>
            </g>
            <text id="Meng" font-family="PingFangSC-Semibold, PingFang SC" font-size="72" font-weight="500">
                <tspan x="134.850644" y="79.1290843">Meng</tspan>
            </text>
        </g>
    </g>
</svg>